<?xml version="1.0" standalone="no"?>
<!DOCTYPE svg PUBLIC "-//W3C//DTD SVG 20010904//EN"
 "http://www.w3.org/TR/2001/REC-SVG-20010904/DTD/svg10.dtd">
<svg version="1.0" xmlns="http://www.w3.org/2000/svg"
 width="200.000000pt" height="200.000000pt" viewBox="0 0 200.000000 200.000000"
 preserveAspectRatio="xMidYMid meet">
<metadata>
Created by potrace 1.16, written by Peter Selinger 2001-2019
</metadata>
<g transform="translate(0.000000,200.000000) scale(0.100000,-0.100000)"
fill="#000000" stroke="none">
<path d="M130 1197 c0 -7 20 -65 45 -129 l45 -115 151 -23 c132 -20 156 -21
193 -10 l41 13 -180 36 c-99 20 -185 39 -191 43 -6 4 -28 48 -49 98 -37 87
-55 117 -55 87z"/>
<path d="M1350 1162 c0 -26 -3 -28 -30 -24 -38 6 -70 -21 -70 -58 0 -41 27
-59 88 -58 l52 0 0 84 c0 77 -2 84 -20 84 -15 0 -20 -7 -20 -28z"/>
<path d="M1710 1106 l0 -84 57 1 c52 2 59 5 71 30 11 22 11 32 0 55 -12 23
-20 27 -56 27 -39 0 -42 2 -42 28 0 17 -5 27 -15 27 -12 0 -15 -16 -15 -84z"/>
</g>
</svg>
