<svg version="1.0" xmlns="http://www.w3.org/2000/svg"
 width="100.000000pt" height="40.000000pt" viewBox="0 0 154.000000 50.000000"
 preserveAspectRatio="xMidYMid meet">

	<g transform="translate(0.000000,50.000000) scale(0.100000,-0.100000)"
	fill="#000000" stroke="none">
		<path d="M118 339 c-15 -8 -18 -25 -18 -94 0 -96 7 -105 80 -105 62 0 80 13
80 60 l0 40 -45 0 c-46 0 -62 -17 -25 -27 11 -3 20 -14 20 -24 0 -14 -7 -19
-30 -19 l-30 0 0 75 0 75 30 0 c20 0 30 -5 30 -15 0 -9 9 -15 25 -15 27 0 35
26 13 48 -15 15 -106 15 -130 1z"/>
		<path d="M910 325 c0 -22 -4 -25 -40 -25 -52 0 -80 -27 -80 -78 0 -21 7 -48
16 -60 13 -19 24 -22 80 -22 l64 0 0 105 c0 98 -1 105 -20 105 -15 0 -20 -7
-20 -25z m-4 -79 c3 -13 4 -35 2 -47 -2 -19 -9 -24 -33 -24 -27 0 -30 4 -33
33 -5 47 3 62 32 62 19 0 27 -7 32 -24z"/>
		<path d="M1020 260 c0 -83 -1 -90 -20 -90 -11 0 -20 -7 -20 -15 0 -18 41 -20
71 -5 17 9 19 22 19 105 0 95 0 95 -25 95 -25 0 -25 -1 -25 -90z"/>
		<path d="M1300 245 l0 -105 61 0 c87 0 99 9 99 75 0 47 -3 57 -25 71 -15 10
-37 14 -55 12 -27 -4 -30 -2 -30 24 0 23 -4 28 -25 28 l-25 0 0 -105z m108
-27 c3 -47 3 -48 -27 -48 -30 0 -31 2 -31 43 0 50 6 59 35 55 16 -2 21 -12 23
-50z"/>
		<path d="M300 219 c0 -78 0 -79 25 -79 24 0 25 3 25 61 0 52 3 62 20 66 38 10
22 30 -25 31 l-45 0 0 -79z"/>
		<path d="M438 289 c-22 -12 -24 -39 -3 -39 8 0 24 5 34 12 20 12 51 5 51 -12
0 -5 -17 -10 -38 -10 -62 0 -93 -48 -54 -83 13 -12 37 -17 80 -17 l62 0 0 64
c0 56 -3 67 -22 80 -25 18 -84 21 -110 5z m77 -99 c0 -18 -33 -26 -47 -12 -6
6 -7 15 -3 22 10 16 50 8 50 -10z"/>
		<path d="M600 219 c0 -78 0 -79 25 -79 24 0 25 3 25 59 0 44 4 60 16 65 39 15
44 8 44 -59 0 -63 1 -65 25 -65 24 0 25 2 25 70 0 83 -7 89 -98 89 l-62 -1 0
-79z"/>
		<path d="M1128 289 c-14 -8 -18 -23 -18 -69 0 -67 12 -80 75 -80 63 0 75 13
75 80 0 48 -4 61 -19 70 -25 13 -91 13 -113 -1z m82 -69 c0 -47 -2 -50 -25
-50 -23 0 -25 3 -25 50 0 47 2 50 25 50 23 0 25 -3 25 -50z"/>
	</g>
</svg>
