<?xml version="1.0" encoding="iso-8859-1"?>
<!-- Generator: Adobe Illustrator 19.0.0, SVG Export Plug-In . SVG Version: 6.00 Build 0)  -->
<svg version="1.1" id="Capa_1" xmlns="http://www.w3.org/2000/svg" xmlns:xlink="http://www.w3.org/1999/xlink" x="0px" y="0px"
	 viewBox="0 0 512.001 512.001" style="enable-background:new 0 0 512.001 512.001;" xml:space="preserve">
<path style="fill:#FECA57;" d="M457.169,182.588h-36.306c-1.224,0-2.266-0.866-2.511-2.066c-4.293-21.05-12.57-40.65-24.019-57.972
	c-0.675-1.021-0.549-2.369,0.317-3.235l25.676-25.676c4.937-4.937,4.937-12.942,0-17.879l-26.275-26.275
	c-4.938-4.938-12.943-4.938-17.88,0L350.496,75.16c-0.866,0.866-2.214,0.992-3.235,0.317c-17.322-11.45-36.921-19.726-57.972-24.02
	c-1.199-0.245-2.065-1.287-2.065-2.511V12.643C287.224,5.66,281.563,0,274.581,0h-37.158c-6.983,0-12.643,5.66-12.643,12.643v36.305
	c0,1.224-0.866,2.266-2.066,2.511c-21.05,4.293-40.649,12.57-57.971,24.02c-1.021,0.675-2.369,0.549-3.235-0.317l-25.676-25.675
	c-4.937-4.938-12.942-4.938-17.88,0L91.678,75.761c-4.938,4.937-4.938,12.942,0,17.88l25.676,25.676
	c0.865,0.865,0.992,2.213,0.317,3.235c-11.45,17.322-19.726,36.921-24.019,57.972c-0.245,1.199-1.287,2.066-2.511,2.066H54.835
	c-6.983,0-12.643,5.661-12.643,12.643v37.157c0,6.983,5.661,12.643,12.643,12.643H91.14c1.224,0,2.266,0.866,2.511,2.066
	c4.293,21.05,12.569,40.65,24.019,57.971c0.675,1.022,0.549,2.369-0.317,3.235l-25.676,25.676c-4.938,4.938-4.938,12.942,0,17.88
	l26.274,26.275c2.446,2.446,5.646,3.677,8.852,3.699c5.3-3.906,9.471-5.63,9.471-5.63l2.43-0.942l22.803-22.803
	c0.866-0.866,2.214-0.992,3.235-0.317c4.279,2.828,8.699,6.492,13.243,8.921l44.343-16.792l0.011,0.013l0,0l-0.011-0.013v-22.46
	c-46.096-14.261-80.615-57.219-80.615-108.001c0-62.427,50.607-113.034,113.034-113.034S367.78,151.384,367.78,213.811
	c0,51.715-35.759,95.317-83.167,108.759v21.702l47.262,17.905c5.298-2.733,10.436-6.765,15.382-10.034
	c1.021-0.675,2.369-0.549,3.235,0.317l25.675,25.675c4.938,4.938,12.943,4.938,17.881,0l26.274-26.274
	c4.937-4.938,4.937-12.942,0-17.88l-25.675-25.676c-0.866-0.866-0.992-2.213-0.317-3.235c11.45-17.321,19.726-36.921,24.019-57.971
	c0.245-1.199,1.287-2.066,2.511-2.066h36.305c6.983,0,12.644-5.661,12.644-12.643v-37.158
	C469.812,188.249,464.152,182.588,457.169,182.588z"/>
<g>
	<path style="fill:#F4B537;" d="M62.797,232.389v-37.157c0-6.982,5.661-12.643,12.643-12.643H54.835
		c-6.983,0-12.643,5.661-12.643,12.643v37.157c0,6.983,5.661,12.643,12.643,12.643H75.44
		C68.457,245.032,62.797,239.371,62.797,232.389z"/>
	<path style="fill:#F4B537;" d="M117.354,119.316c0.865,0.865,0.992,2.213,0.316,3.235c-11.45,17.322-19.726,36.921-24.019,57.972
		c-0.244,1.2-1.287,2.066-2.511,2.066h20.605c1.224,0,2.266-0.866,2.511-2.066c4.293-21.05,12.569-40.65,24.019-57.972
		c0.675-1.021,0.549-2.369-0.316-3.235L112.283,93.64c-4.938-4.937-4.938-12.942,0-17.88l24.912-24.912l-1.363-1.363
		c-4.937-4.937-12.942-4.937-17.88,0L91.678,75.761c-4.938,4.937-4.938,12.942,0,17.88L117.354,119.316z"/>
	<path style="fill:#F4B537;" d="M112.283,351.859c-4.938-4.937-4.938-12.942,0-17.88l25.676-25.676
		c0.865-0.866,0.992-2.213,0.316-3.235c-11.45-17.321-19.726-36.921-24.019-57.971c-0.244-1.199-1.287-2.066-2.511-2.066H91.14
		c1.224,0,2.266,0.867,2.511,2.066c4.293,21.05,12.569,40.65,24.019,57.971c0.675,1.022,0.549,2.369-0.316,3.235l-25.676,25.676
		c-4.938,4.937-4.938,12.942,0,17.88l26.274,26.275c2.446,2.446,5.645,3.677,8.851,3.699c5.3-3.906,9.471-5.63,9.471-5.63
		l0.253-0.098L112.283,351.859z"/>
</g>
<path style="fill:#576574;" d="M252.791,128.484c-42.525,0-76.996,34.472-76.996,76.997v30.47c5.146-4.77,12.467-7.363,19.613-6.408
	v-3.837c0-3.05,2.604-5.459,5.624-5.231c29.769,2.139,60.065-7.321,82.972-22.285c2.139-1.398,4.97-1.05,6.708,0.818
	c19.584,21.051,19.466,20.236,19.466,22.984v7.534c7.833-1.174,14.782,1.247,19.61,5.735v-29.78
	C329.788,162.956,295.317,128.484,252.791,128.484z"/>
<path style="fill:#3E4B5A;" d="M196.462,205.481c0-39.019,29.028-71.235,66.663-76.287c-3.382-0.454-6.827-0.71-10.333-0.71
	c-42.525,0-76.996,34.472-76.996,76.997v30.47c5.146-4.77,12.467-7.362,19.613-6.408v-3.837c0-1.184,0.396-2.269,1.053-3.144
	V205.481z"/>
<g>
	<path style="fill:#F2BB88;" d="M309.158,226.467v42.179c0,0.457-0.024,0.909-0.035,1.364c14.926,2.26,26.616-8.525,26.616-21.77
		C335.74,234.968,324.04,224.236,309.158,226.467z"/>
	<path style="fill:#F2BB88;" d="M196.428,268.645v-42.162c-12.995-1.735-26.582,8.238-26.582,21.757
		c0,13.228,11.664,24.032,26.615,21.769C196.451,269.554,196.428,269.101,196.428,268.645z"/>
</g>
<g>
	<path style="fill:#E3A76F;" d="M327.831,231.381c-4.77-3.957-11.333-6.014-18.673-4.914v42.179c0,0.457-0.024,0.909-0.035,1.364
		c7.363,1.115,13.934-0.948,18.708-4.912V231.381z"/>
	<path style="fill:#E3A76F;" d="M196.428,265.101c-9.693-8.048-11.37-23.544,0-33.037v-5.581
		c-12.994-1.735-26.582,8.238-26.582,21.757c0,13.228,11.664,24.032,26.615,21.769c-0.011-0.455-0.033-0.908-0.033-1.364V265.101z"
		/>
</g>
<path style="fill:#F2BB88;" d="M253.612,324.19c-12.439,0-23.371-3.415-32.312-9.128v30.218l32.174,39.713l32.173-39.713v-31.07
	C276.533,320.497,265.497,324.19,253.612,324.19z"/>
<path style="fill:#E3A76F;" d="M241.905,323.126c-7.671-1.423-14.59-4.22-20.605-8.063v30.218l20.605,25.433V323.126z"/>
<path style="fill:#E4EAF8;" d="M370.76,376.203l-85.114-32.962l-32.173,39.713l-32.174-39.713l-85.024,32.962
	c0,0-31.48,12.942-31.48,48.829v79.645c0,4.044,3.279,7.323,7.323,7.323h282.863c4.009,0,7.259-3.25,7.259-7.259v-79.709
	C402.24,389.145,370.76,376.203,370.76,376.203z"/>
<path style="fill:#D8DCE5;" d="M125.4,504.677V415.76c0-24.622,14.817-38.44,24.12-44.691l-13.244,5.135
	c0,0-31.48,12.942-31.48,48.829v79.645c0,4.044,3.279,7.323,7.323,7.323h20.605C128.679,512,125.4,508.721,125.4,504.677z"/>
<path style="fill:#F2D1A5;" d="M290.713,196.968c-1.738-1.868-4.57-2.215-6.708-0.818c-22.907,14.964-53.203,24.424-82.972,22.285
	c-3.019-0.229-5.624,2.18-5.624,5.23v45.999c0,29.564,23.165,56.566,58.204,56.566c31.191,0,56.566-25.376,56.566-56.566v-49.712
	C310.178,217.204,310.296,218.019,290.713,196.968z"/>
<path style="fill:#F2BB88;" d="M216.013,269.665v-51.11c-4.984,0.265-9.99,0.239-14.981-0.119c-3.019-0.229-5.624,2.18-5.624,5.23
	v45.999c0,29.563,23.164,56.565,58.204,56.565c3.233,0,6.398-0.287,9.483-0.811C236.406,320.893,216.013,297.622,216.013,269.665z"
	/>
<g>
	<path style="fill:#D8DCE5;" d="M292.321,403.36l24.059-48.217l-30.733-11.902l-32.173,39.713l31.368,22.278
		C287.38,407.035,290.93,406.147,292.321,403.36z"/>
	<path style="fill:#D8DCE5;" d="M214.671,403.36l-24.059-48.217l30.733-11.902l32.173,39.713l-31.368,22.278
		C219.611,407.035,216.062,406.147,214.671,403.36z"/>
</g>
<path style="fill:#EE5253;" d="M253.515,382.981v-0.028l-0.019,0.014l-0.019-0.014v0.028l-22.815,16.203l10.784,16.231
	c8.701,0,15.401,0,24.1,0l10.784-16.231L253.515,382.981z"/>
<path style="fill:#FF6B6B;" d="M225.098,512h56.795l-16.348-96.584c-8.701,0-15.401,0-24.1,0L225.098,512z"/>
<path style="fill:#D83941;" d="M264.913,391.076l-11.398-8.095v-0.027l-0.019,0.014l-0.02-0.014v0.027l-22.815,16.203l10.784,16.231
	c8.391,0,14.908,0,22.834,0l-8.855-13.327c-1.075-1.618-0.671-3.798,0.913-4.923L264.913,391.076z"/>
<path style="fill:#EE5253;" d="M241.446,415.416L225.098,512h22.834l16.347-96.584C256.319,415.416,249.869,415.416,241.446,415.416
	z"/>
<g>
	<path style="fill:#D8DCE5;" d="M166.101,512v-74.633c0-4.267-3.459-7.727-7.727-7.727s-7.727,3.459-7.727,7.727V512H166.101z"/>
	<path style="fill:#D8DCE5;" d="M356.391,512v-74.633c0-4.267-3.459-7.727-7.727-7.727s-7.727,3.459-7.727,7.727V512H356.391z"/>
</g>
<path style="fill:#F4B537;" d="M245.385,12.643C245.385,5.66,251.046,0,258.028,0h-20.605c-6.983,0-12.643,5.661-12.643,12.643
	v36.305c0,1.224-0.866,2.266-2.066,2.511l19.246-2.132c1.949-0.216,3.424-1.863,3.424-3.824L245.385,12.643L245.385,12.643z"/>
<g>
</g>
<g>
</g>
<g>
</g>
<g>
</g>
<g>
</g>
<g>
</g>
<g>
</g>
<g>
</g>
<g>
</g>
<g>
</g>
<g>
</g>
<g>
</g>
<g>
</g>
<g>
</g>
<g>
</g>
</svg>
