<svg viewBox="1 -45 379.56701 379" xmlns="http://www.w3.org/2000/svg"><path d="m302.710938 103.386719h-141.695313c-14.226563 0-25.761719-11.535157-25.761719-25.765625 0-14.226563 11.535156-25.761719 25.761719-25.761719h141.695313c14.226562 0 25.761718 11.535156 25.761718 25.761719 0 14.230468-11.53125 25.765625-25.761718 25.765625zm0 0" fill="#ad6327"/><path d="m270.507812 51.859375h-77.289062c-14.226562 0-25.761719-11.535156-25.761719-25.761719 0-14.230468 11.535157-25.761718 25.761719-25.761718h77.289062c14.230469 0 25.761719 11.53125 25.761719 25.761718 0 14.226563-11.53125 25.761719-25.761719 25.761719zm0 0" fill="#d3843d"/><path d="m141.695312 161.351562 6.441407 122.371094h25.761719l32.203124-103.050781zm0 0" fill="#7d8d9c"/><path d="m90.167969 109.828125c-2.683594 0-5.085938-1.667969-6.03125-4.183594l-17.753907-47.34375h-59.941406c-3.558594 0-6.441406-2.882812-6.441406-6.441406s2.882812-6.441406 6.441406-6.441406h64.40625c2.683594 0 5.085938 1.667969 6.03125 4.179687l19.320313 51.527344c1.25 3.335938-.445313 7.050781-3.78125 8.296875-.71875.269531-1.480469.40625-2.25.40625zm0 0" fill="#5a6470"/><path d="m372.734375 100.234375c-1.140625-2.03125-3.285156-3.289063-5.617187-3.289063h-276.949219c-3.554688 0-6.4375 2.882813-6.4375 6.4375 0 1.273438.375 2.515626 1.082031 3.574219l51.523438 77.289063c.890624 1.332031 2.242187 2.285156 3.796874 2.675781l154.574219 38.644531c2.734375.679688 5.59375-.488281 7.0625-2.890625l70.847657-115.933593c1.210937-1.988282 1.257812-4.476563.117187-6.507813zm0 0" fill="#cfdfe8"/><path d="m380 232.199219c0 28.457031-23.070312 51.523437-51.527344 51.523437-28.457031 0-51.523437-23.066406-51.523437-51.523437s23.066406-51.527344 51.523437-51.527344c28.457032 0 51.527344 23.070313 51.527344 51.527344zm0 0" fill="#5a6470"/><path d="m354.238281 232.199219c0 14.226562-11.535156 25.761719-25.765625 25.761719-14.226562 0-25.761718-11.535157-25.761718-25.761719 0-14.230469 11.535156-25.761719 25.761718-25.761719 14.230469 0 25.765625 11.53125 25.765625 25.761719zm0 0" fill="#aabece"/><path d="m322.035156 135.589844h-193.222656c-3.554688 0-6.4375-2.886719-6.4375-6.441406 0-3.558594 2.882812-6.441407 6.4375-6.441407h193.222656c3.554688 0 6.4375 2.882813 6.4375 6.441407 0 3.554687-2.882812 6.441406-6.4375 6.441406zm0 0" fill="#7d8d9c"/><path d="m322.035156 225.757812h12.878906v12.882813h-12.878906zm0 0" fill="#5a6470"/><g fill="#ad6327"><path d="m276.949219 290.164062h-77.289063c-3.558594 0-6.441406-2.882812-6.441406-6.441406 0-3.554687 2.882812-6.4375 6.441406-6.4375h77.289063c3.554687 0 6.441406 2.882813 6.441406 6.4375 0 3.558594-2.886719 6.441406-6.441406 6.441406zm0 0"/><path d="m122.371094 290.164062h-115.929688c-3.558594 0-6.441406-2.882812-6.441406-6.441406 0-3.554687 2.882812-6.4375 6.441406-6.4375h115.929688c3.558594 0 6.441406 2.882813 6.441406 6.4375 0 3.558594-2.882812 6.441406-6.441406 6.441406zm0 0"/></g></svg>