<svg xmlns="http://www.w3.org/2000/svg" width="1928.565" height="522.789" viewBox="0 0 1928.565 522.789"><defs><style>.a,.b,.c{fill:none;stroke-width:0.5px;}.a,.c{stroke:#707070;}.a,.b{stroke-linecap:round;}.b{stroke:#595959;stroke-linejoin:round;}.d,.e{fill:#903a3b;}.e,.f{opacity:0.2;}.f,.j{fill:#374ffe;}.g{fill:#9671d4;}.h{fill:#4e8f8b;}.i{fill:#69f0ae;opacity:0.47;}</style></defs><g transform="translate(6.623 -88.225)"><g transform="translate(0 30)"><path class="a" d="M-9113.99,3896.59c-359.675,132.185-345.377,390.692-227.608,266.12s-697.628,4.718-730.856,128.572" transform="translate(11035.612 -3710.575)"/><path class="b" d="M-9329.875,3766.564c-346.092,192.327-161.061,520.84-260.779,422.875-111.561-123.674,670.833,21.144,737.653,97.976.3.38.341-.594.786,0" transform="translate(9815.001 -3708)"/><path class="c" d="M-13159.485,14172.829c250.654-165.344,974.341,53.2,968.616,238.634" transform="translate(13153 -13833)"/><path class="c" d="M-13583.926,14659.219c10.762-250.359,566.225-304.653,618.73-520.6" transform="translate(14546.584 -14078.918)"/></g><g transform="translate(369 160)"><circle class="d" cx="5" cy="5" r="5" transform="translate(3 3)"/><circle class="e" cx="13" cy="13" r="13" transform="translate(-5 -5)"/></g><g transform="translate(1494 429)"><circle class="d" cx="5" cy="5" r="5" transform="translate(3 3)"/><circle class="f" cx="13" cy="13" r="13" transform="translate(-5 -5)"/></g><g transform="translate(189 305)"><circle class="g" cx="5" cy="5" r="5" transform="translate(3 3)"/></g><g transform="translate(1528 160)"><circle class="h" cx="5" cy="5" r="5" transform="translate(3 3)"/></g><g transform="translate(64 -24)"><path class="i" d="M13.5,0A13.257,13.257,0,0,1,27,13,13.257,13.257,0,0,1,13.5,26,13.257,13.257,0,0,1,0,13,13.257,13.257,0,0,1,13.5,0Z" transform="translate(470 499)"/><g transform="translate(203 297)"><circle class="j" cx="5" cy="5" r="5" transform="translate(275 210)"/></g></g></g></svg>